<svg id="Group_403" data-name="Group 403" xmlns="http://www.w3.org/2000/svg" viewBox="-5097 278 63.917 60.134">
  <defs>
    <style>
      .cls-1 {
        fill: #e30613;
      }
    </style>
  </defs>
  <g id="filesearch" transform="translate(-5097.491 278)">
    <path id="Path_91" data-name="Path 91" class="cls-1" d="M36.491,22h-25a1,1,0,0,0,0,2h25a1,1,0,0,0,0-2Z"/>
    <path id="Path_92" data-name="Path 92" class="cls-1" d="M11.491,16h10a1,1,0,0,0,0-2h-10a1,1,0,0,0,0,2Z"/>
    <path id="Path_93" data-name="Path 93" class="cls-1" d="M37.491,31a1,1,0,0,0-1-1h-25a1,1,0,0,0,0,2h25A1,1,0,0,0,37.491,31Z"/>
    <path id="Path_94" data-name="Path 94" class="cls-1" d="M29.491,39a1,1,0,0,0-1-1h-17a1,1,0,1,0,0,2h17A1,1,0,0,0,29.491,39Z"/>
    <path id="Path_95" data-name="Path 95" class="cls-1" d="M11.491,46a1,1,0,0,0,0,2h14a1,1,0,0,0,0-2Z"/>
    <path id="Path_96" data-name="Path 96" class="cls-1" d="M2.491,2h29V16h14V31h2V14.586L32.9,0H.491V60h37V58h-35V2Zm31,1.414L44.077,14H33.491Z"/>
  </g>
  <g id="sand-clock" transform="translate(-5089.774 254.111) rotate(50)">
    <g id="Layer_2_32_" transform="translate(70.184 0)">
      <g id="Group_402" data-name="Group 402" transform="translate(0 0)">
        <path id="Path_101" data-name="Path 101" class="cls-1" d="M85.63,9.85a3.367,3.367,0,0,0,1.591-3V2.969h.532a.444.444,0,0,0,.442-.442V.442A.444.444,0,0,0,87.753,0H70.626a.443.443,0,0,0-.442.442V2.526a.443.443,0,0,0,.442.442h.532V6.924c0,1.868.569,2.3,1.574,2.917L77.1,12.505v1.136c-1.1.662-3.977,2.4-4.354,2.658a3.366,3.366,0,0,0-1.591,3v3.345h-.532a.443.443,0,0,0-.442.442v2.084a.443.443,0,0,0,.442.442H87.753a.444.444,0,0,0,.442-.442V23.084a.444.444,0,0,0-.442-.442h-.532V19.226c0-1.867-.569-2.3-1.574-2.917l-4.371-2.664V12.509C82.377,11.847,85.253,10.114,85.63,9.85Zm-5.564,4.921,4.753,2.9a2.059,2.059,0,0,1,.65.487,2.284,2.284,0,0,1,.16,1.07v3.416H72.749V19.3a1.8,1.8,0,0,1,.91-1.691c.3-.209,2.945-1.808,4.649-2.831a.8.8,0,0,0,.386-.683V12.058a.8.8,0,0,0-.382-.679l-4.754-2.9a2.054,2.054,0,0,1-.649-.488,2.278,2.278,0,0,1-.161-1.07V2.969h12.88V6.854a1.8,1.8,0,0,1-.91,1.691c-.3.21-2.944,1.808-4.649,2.831a.8.8,0,0,0-.386.682v2.034A.8.8,0,0,0,80.066,14.772Z" transform="translate(-70.184 0)"/>
        <path id="Path_102" data-name="Path 102" class="cls-1" d="M128.612,302.737a.332.332,0,0,0-.168.329v2.058a.182.182,0,0,0,.2.2l5.625.006,5.625-.006a.182.182,0,0,0,.2-.2v-2.058a.333.333,0,0,0-.167-.329c-.765-.572-4.166-3.255-5.662-3.255S129.377,302.165,128.612,302.737Z" transform="translate(-125.29 -283.269)"/>
      </g>
    </g>
  </g>
</svg>
