<svg id="Group_405" data-name="Group 405" xmlns="http://www.w3.org/2000/svg" viewBox="-5169 221 57 60">
  <defs>
    <style>
      .cls-1, .cls-2 {
        fill: #e30613;
      }

      .cls-2 {
        stroke: #e30613;
      }
    </style>
  </defs>
  <g id="fileadd" transform="translate(-5170.5 221)">
    <path id="Path_84" data-name="Path 84" class="cls-1" d="M12.5,24h25a1,1,0,0,0,0-2h-25a1,1,0,0,0,0,2Z"/>
    <path id="Path_85" data-name="Path 85" class="cls-1" d="M12.5,16h10a1,1,0,0,0,0-2h-10a1,1,0,0,0,0,2Z"/>
    <path id="Path_86" data-name="Path 86" class="cls-1" d="M12.5,32h25a1,1,0,0,0,0-2h-25a1,1,0,0,0,0,2Z"/>
    <path id="Path_87" data-name="Path 87" class="cls-1" d="M29.5,38h-17a1,1,0,0,0,0,2h17a1,1,0,0,0,0-2Z"/>
    <path id="Path_88" data-name="Path 88" class="cls-1" d="M26.5,46h-14a1,1,0,0,0,0,2h14a1,1,0,0,0,0-2Z"/>
    <path id="Path_89" data-name="Path 89" class="cls-1" d="M48.5,34.363V14.586L33.914,0H1.5V60h44a12.993,12.993,0,0,0,3-25.637ZM34.5,3.414,45.086,14H34.5ZM38.578,58H3.5V2h29V16h14V34.044c-.342-.029-.674-.044-1-.044a13.015,13.015,0,0,0-13,13c0,.4.025.792.06,1.183.008.091.017.181.027.272.043.382.1.76.173,1.131.009.044.021.087.03.131.072.338.159.67.257,1,.025.082.048.165.074.246q.169.528.38,1.037c.027.064.057.126.084.189q.194.444.419.869c.036.068.07.137.107.205q.262.476.564.927c.046.069.094.135.141.2q.274.4.576.77c.038.047.074.1.113.143.231.278.475.544.728.8.062.063.125.124.189.186.245.239.5.471.759.69.023.02.045.041.069.06.282.232.577.449.879.658.073.051.147.1.221.149S38.5,57.951,38.578,58ZM45.5,58a11,11,0,0,1,0-22c.312,0,.62.021.926.047s.592.066.909.119l.443.074A11,11,0,0,1,45.5,58Z"/>
    <path id="Path_90" data-name="Path 90" class="cls-2" d="M51.5,46h-5V41a1,1,0,0,0-2,0v5h-5a1,1,0,0,0,0,2h5v5a1,1,0,0,0,2,0V48h5a1,1,0,0,0,0-2Z"/>
  </g>
</svg>
