<svg id="Group_401" data-name="Group 401" xmlns="http://www.w3.org/2000/svg" viewBox="-3858.616 637 83.596 83.597">
  <defs>
    <style>
      .cls-1 {
        fill: #fff;
      }
    </style>
  </defs>
  <g id="Group_400" data-name="Group 400">
    <g id="Group_398" data-name="Group 398" transform="translate(-3858.616 637)">
      <ellipse id="Ellipse_11" data-name="Ellipse 11" class="cls-1" cx="41.798" cy="41.798" rx="41.798" ry="41.798" transform="translate(0 0)"/>
      <g id="user" transform="translate(20.79 19.449)">
        <g id="Group_293" data-name="Group 293" transform="translate(0 0)">
          <path id="Path_83" data-name="Path 83" d="M36,27.265a21.007,21.007,0,0,0-8.014-5.026,12.192,12.192,0,1,0-13.8,0A21.121,21.121,0,0,0,0,42.176h3.3a17.793,17.793,0,1,1,35.586,0h3.3A20.951,20.951,0,0,0,36,27.265ZM21.088,21.088a8.9,8.9,0,1,1,8.9-8.9A8.907,8.907,0,0,1,21.088,21.088Z" transform="translate(0)"/>
        </g>
      </g>
    </g>
  </g>
</svg>
